<svg width="40" height="36" viewBox="0 0 40 36" fill="none" xmlns="http://www.w3.org/2000/svg">
<path d="M11.6484 3.0625L10.8359 5.5H5C2.24219 5.5 0 7.74219 0 10.5V30.5C0 33.2578 2.24219 35.5 5 35.5H35C37.7578 35.5 40 33.2578 40 30.5V10.5C40 7.74219 37.7578 5.5 35 5.5H29.1641L28.3516 3.0625C27.8438 1.53125 26.4141 0.5 24.7969 0.5H15.2031C13.5859 0.5 12.1562 1.53125 11.6484 3.0625ZM20 28C15.8594 28 12.5 24.6406 12.5 20.5C12.5 16.3594 15.8594 13 20 13C24.1406 13 27.5 16.3594 27.5 20.5C27.5 24.6406 24.1406 28 20 28Z" fill="white"/>
</svg>
