<svg width="14" height="14" viewBox="0 0 14 14" xmlns="http://www.w3.org/2000/svg">
    <path d="M0.583333 0.875C0.260069 0.875 0 1.13507 0 1.45833C0 1.7816 0.260069 2.04167 0.583333 2.04167H1.68924C1.7816 2.04167 1.86181 2.10729 1.88125 2.19965L3.13542 8.78646C3.2934 9.61285 4.01528 10.2083 4.85382 10.2083H11.8611C12.1844 10.2083 12.4444 9.94826 12.4444 9.625C12.4444 9.30174 12.1844 9.04167 11.8611 9.04167H4.85382C4.57431 9.04167 4.33368 8.84236 4.28021 8.56771L4.14896 7.875H11.1611C11.9535 7.875 12.6462 7.34514 12.8503 6.57951L13.8469 2.87778C14.0146 2.26042 13.5479 1.65278 12.9087 1.65278H2.9191C2.69792 1.18611 2.22639 0.875 1.68924 0.875H0.583333ZM3.18646 2.81944H12.6559L11.725 6.27569C11.6569 6.5309 11.426 6.70833 11.1611 6.70833H3.92778L3.18646 2.81944ZM4.27778 13.3194C4.5872 13.3194 4.88394 13.1965 5.10274 12.9777C5.32153 12.7589 5.44444 12.4622 5.44444 12.1528C5.44444 11.8434 5.32153 11.5466 5.10274 11.3278C4.88394 11.109 4.5872 10.9861 4.27778 10.9861C3.96836 10.9861 3.67161 11.109 3.45282 11.3278C3.23403 11.5466 3.11111 11.8434 3.11111 12.1528C3.11111 12.4622 3.23403 12.7589 3.45282 12.9777C3.67161 13.1965 3.96836 13.3194 4.27778 13.3194ZM12.4444 12.1528C12.4444 11.8434 12.3215 11.5466 12.1027 11.3278C11.8839 11.109 11.5872 10.9861 11.2778 10.9861C10.9684 10.9861 10.6716 11.109 10.4528 11.3278C10.234 11.5466 10.1111 11.8434 10.1111 12.1528C10.1111 12.4622 10.234 12.7589 10.4528 12.9777C10.6716 13.1965 10.9684 13.3194 11.2778 13.3194C11.5872 13.3194 11.8839 13.1965 12.1027 12.9777C12.3215 12.7589 12.4444 12.4622 12.4444 12.1528Z"/>
</svg>