<svg width="16" height="12" viewBox="0 0 16 12" xmlns="http://www.w3.org/2000/svg">
    <path d="M15.22 2.03148C15.22 2.41607 15.083 2.74807 14.813 3.01807L6.86498 10.9661C6.73158 11.0995 6.57978 11.2019 6.41398 11.2705L6.41358 11.2707L6.41298 11.2709C6.24778 11.3385 6.07478 11.3729 5.89898 11.3729C5.72298 11.3729 5.54998 11.3385 5.38458 11.2705C5.21898 11.2023 5.06699 11.0999 4.93319 10.9659L1.18679 7.21967C0.916785 6.94967 0.779785 6.61767 0.779785 6.23308C0.779785 5.84847 0.916785 5.51647 1.18679 5.24647C1.45679 4.97647 1.78519 4.83947 2.16299 4.83947C2.53559 4.83947 2.86779 4.97327 3.14999 5.23707L3.15499 5.24167L5.89938 7.98607L12.8606 1.04487C13.1276 0.777675 13.4526 0.637275 13.8268 0.627675C13.8386 0.627275 13.8506 0.627075 13.8624 0.627075C14.2272 0.627075 14.5576 0.773275 14.8178 1.04968C15.0848 1.31888 15.22 1.64908 15.22 2.03148Z"/>
</svg>