<svg width="14" height="14" viewBox="0 0 14 14" xmlns="http://www.w3.org/2000/svg">
    <path d="M7 14C10.8664 14 14 10.8664 14 7C14 3.13359 10.8664 0 7 0C3.13359 0 0 3.13359 0 7C0 10.8664 3.13359 14 7 14ZM6.34375 9.40625V7.65625H4.59375C4.23008 7.65625 3.9375 7.36367 3.9375 7C3.9375 6.63633 4.23008 6.34375 4.59375 6.34375H6.34375V4.59375C6.34375 4.23008 6.63633 3.9375 7 3.9375C7.36367 3.9375 7.65625 4.23008 7.65625 4.59375V6.34375H9.40625C9.76992 6.34375 10.0625 6.63633 10.0625 7C10.0625 7.36367 9.76992 7.65625 9.40625 7.65625H7.65625V9.40625C7.65625 9.76992 7.36367 10.0625 7 10.0625C6.63633 10.0625 6.34375 9.76992 6.34375 9.40625Z"/>
</svg>