<svg width="14" height="14" viewBox="0 0 14 14" xmlns="http://www.w3.org/2000/svg">
    <path d="M7 14C10.8664 14 14 10.8664 14 7C14 3.13359 10.8664 0 7 0C3.13359 0 0 3.13359 0 7C0 10.8664 3.13359 14 7 14ZM9.67695 5.25L9.21211 5.71484L7.92695 7L9.21211 8.28516L9.67695 8.75L8.75 9.67695L8.28516 9.21211L7 7.92695L5.71484 9.21211L5.25 9.67695L4.32305 8.75L4.78789 8.28516L6.07305 7L4.78789 5.71484L4.32305 5.25L5.25 4.32305L5.71484 4.78789L7 6.07305L8.28516 4.78789L8.75 4.32305L9.67695 5.25Z"/>
</svg>