<svg width="16" height="17" viewBox="0 0 16 17" xmlns="http://www.w3.org/2000/svg">
    <path d="M7.25 4.25C7.25 3.83437 7.58437 3.5 8 3.5C8.41562 3.5 8.75 3.83437 8.75 4.25V8.1L11.4156 9.875C11.7594 10.1062 11.8531 10.5719 11.5969 10.9156C11.3938 11.2594 10.9281 11.3531 10.5844 11.0969L7.58437 9.09688C7.375 8.98438 7.25 8.75 7.25 8.47188V4.25ZM8 0.5C12.4187 0.5 16 4.08125 16 8.5C16 12.9187 12.4187 16.5 8 16.5C3.58125 16.5 0 12.9187 0 8.5C0 4.08125 3.58125 0.5 8 0.5ZM1.5 8.5C1.5 12.0906 4.40938 15 8 15C11.5906 15 14.5 12.0906 14.5 8.5C14.5 4.90938 11.5906 2 8 2C4.40938 2 1.5 4.90938 1.5 8.5Z"/>
</svg>