<svg width="24" height="24" viewBox="0 0 24 24" xmlns="http://www.w3.org/2000/svg">
    <path d="M21 7.5C22.6547 7.5 24 8.84531 24 10.5V21C24 22.6547 22.6547 24 21 24H3C1.34297 24 0 22.6547 0 21V10.5C0 8.84531 1.34297 7.5 3 7.5H21ZM21 9.75H3C2.58562 9.75 2.25 10.0875 2.25 10.5V21C2.25 21.4125 2.58562 21.75 3 21.75H21C21.4125 21.75 21.75 21.4125 21.75 21V10.5C21.75 10.0875 21.4125 9.75 21 9.75ZM20.625 3.75C21.2484 3.75 21.75 4.25391 21.75 4.875C21.75 5.49844 21.2484 6 20.625 6H3.375C2.75391 6 2.25 5.49844 2.25 4.875C2.25 4.25391 2.75391 3.75 3.375 3.75H20.625ZM18.375 0C18.9984 0 19.5 0.503906 19.5 1.125C19.5 1.74609 18.9984 2.25 18.375 2.25H5.625C5.00156 2.25 4.5 1.74609 4.5 1.125C4.5 0.503906 5.00156 0 5.625 0H18.375Z"/>
</svg>