<svg width="42" height="42" viewBox="0 0 42 42" fill="none" xmlns="http://www.w3.org/2000/svg">
    <mask id="mask0_2837_12309" style="mask-type:luminance" maskUnits="userSpaceOnUse" x="0" y="0" width="42" height="42">
        <path d="M0 0.91487C0 0.409602 0.409603 0 0.91487 0H41.0851C41.5904 0 42 0.409603 42 0.91487V41.0851C42 41.5904 41.5904 42 41.0851 42H0.91487C0.409602 42 0 41.5904 0 41.0851V0.91487Z" fill="white"/>
    </mask>
    <g mask="url(#mask0_2837_12309)">
        <path d="M0 0.91487C0 0.409602 0.409603 0 0.91487 0H41.0851C41.5904 0 42 0.409603 42 0.91487V41.0851C42 41.5904 41.5904 42 41.0851 42H0.91487C0.409602 42 0 41.5904 0 41.0851V0.91487Z" fill="#0F1216"/>
        <path d="M10.9194 26.8936C9.91475 29.1117 6.97298 34.1985 3.2428 36.8002C-1.41992 40.0522 -3.74053 44.0839 -5.62092 48.2387C-7.50129 52.3936 -10.2756 57.8172 -16.1993 61.8901C-20.9384 65.1484 -25.3141 72.4621 -26.9097 75.7117" stroke="#FFC700" stroke-width="3.01887" stroke-linecap="round"/>
        <path d="M12.8893 28.4199C11.8847 30.6381 8.94292 35.7249 5.21274 38.3265C0.550026 41.5785 -1.77059 45.6102 -3.65096 49.7651C-5.53135 53.9199 -8.30564 59.3436 -14.2294 63.4165C-18.9684 66.6748 -23.3442 73.9885 -24.9397 77.2381" stroke="#1BC47D" stroke-width="3.01887" stroke-linecap="round"/>
        <path d="M14.895 29.8652C13.8903 32.0834 10.9485 37.1702 7.21834 39.7718C2.55562 43.0238 0.235009 47.0555 -1.64538 51.2104C-3.52575 55.3653 -6.30005 60.7889 -12.2238 64.8617C-16.9628 68.12 -21.3386 75.4338 -22.9341 78.6834" stroke="#18A0FB" stroke-width="3.01887" stroke-linecap="round"/>
        <path d="M16.8469 31.3779C15.8422 33.5961 12.9004 38.6829 9.17026 41.2845C4.50752 44.5365 2.18691 48.5683 0.306524 52.7231C-1.57386 56.878 -4.34815 62.3016 -10.2719 66.3745C-15.0109 69.6328 -19.3867 76.9466 -20.9822 80.1961" stroke="#907CFF" stroke-width="3.01887" stroke-linecap="round"/>
        <path d="M18.7997 32.8906C17.7951 35.1088 14.8533 40.1956 11.1231 42.7972C6.46041 46.0492 4.1398 50.0809 2.25942 54.2358C0.379038 58.3906 -2.39525 63.8143 -8.31899 67.8872C-13.058 71.1455 -17.4338 78.4592 -19.0293 81.7088" stroke="#EE46D3" stroke-width="3.01887" stroke-linecap="round"/>
        <path d="M20.7521 34.4043C19.7475 36.6225 16.8057 41.7093 13.0755 44.3109C8.4128 47.5629 6.09219 51.5946 4.2118 55.7495C2.33142 59.9043 -0.442875 65.328 -6.36662 69.4009C-11.1056 72.6592 -15.4815 79.9729 -17.0769 83.2224" stroke="#EF5533" stroke-width="3.01887" stroke-linecap="round"/>
        <path fill-rule="evenodd" clip-rule="evenodd" d="M16.3004 10.6389C20.8168 4.65334 27.8189 4.14981 33.3558 8.32755C38.8657 12.485 40.3031 19.3566 35.7868 25.3421C33.0798 28.9297 29.8429 30.386 26.4412 30.0103C26.3306 31.7007 25.4764 33.49 24.1533 35.2434C21.614 38.609 18.5149 40.1459 15.9437 38.2059C13.8309 36.6117 14.5893 34.7775 15.6427 32.7597L14.8455 32.1581C13.2539 33.7699 11.6476 35.2769 9.15612 33.397C6.38566 31.3065 7.1634 27.7055 9.70285 24.34C11.1108 22.4741 12.7437 21.0543 14.5775 20.5611C13.3401 17.4699 13.713 14.0679 16.3004 10.6389ZM29.7613 24.7271C31.4847 24.5824 33.8979 23.623 33.2212 22.805C32.7824 22.2746 31.0324 21.5803 29.0752 20.8037C28.0147 20.383 26.8934 19.9382 25.8868 19.4821C24.8803 19.0261 23.7846 18.4499 22.7485 17.905C20.836 16.8992 19.1258 15.9999 18.5523 16.1592C17.6682 16.4049 18.3612 18.6367 19.3888 20.0277C20.4163 21.4189 22.0865 22.6955 24.0317 23.5767C25.9769 24.458 28.038 24.8718 29.7613 24.7271ZM21.5065 12.5896C20.4488 12.1392 19.6959 12.7791 19.4594 13.1353C19.3672 13.274 19.1802 13.3117 19.0415 13.2196C18.9028 13.1275 18.865 12.9403 18.9571 12.8016C19.2843 12.309 20.3162 11.4274 21.7427 12.0349C22.6665 12.4282 23.0525 13.0693 23.1932 13.6242C23.2619 13.8956 23.271 14.1402 23.263 14.317C23.2591 14.4059 23.2508 14.4787 23.2431 14.5309C23.2394 14.5569 23.2357 14.5779 23.2328 14.5932C23.2313 14.6009 23.23 14.6071 23.229 14.6118C23.2286 14.6143 23.2281 14.6163 23.2278 14.6179L23.2273 14.6201L23.227 14.6213C23.227 14.6213 23.2269 14.6216 22.933 14.5546L23.227 14.6213C23.19 14.7837 23.0283 14.8855 22.8659 14.8485C22.704 14.8115 22.6025 14.6507 22.6389 14.4887C22.6391 14.4876 22.6396 14.4848 22.6403 14.4811C22.6418 14.4735 22.644 14.4608 22.6465 14.4436C22.6516 14.4089 22.6578 14.3563 22.6607 14.2901C22.6667 14.1569 22.6597 13.9734 22.6087 13.7724C22.5099 13.3828 22.2416 12.9026 21.5065 12.5896ZM31.6693 18.2505C31.9461 17.9246 32.7689 17.3776 33.7663 17.949C34.4596 18.3462 34.6697 18.8546 34.7221 19.253C34.749 19.4586 34.7345 19.6416 34.7129 19.7733C34.7022 19.8387 34.6899 19.8902 34.6808 19.924C34.6763 19.9409 34.6726 19.9532 34.6703 19.9605C34.6695 19.9632 34.6688 19.9651 34.6684 19.9664L34.6679 19.9677C34.613 20.1242 34.6947 20.2962 34.8512 20.3519C35.008 20.4078 35.1804 20.3259 35.2363 20.169L34.9522 20.0679C35.2363 20.169 35.2363 20.169 35.2363 20.169L35.2368 20.1675L35.2376 20.1654L35.2388 20.1618L35.2396 20.1596C35.2411 20.1549 35.2431 20.1489 35.2454 20.1415C35.2501 20.1266 35.2562 20.1062 35.263 20.0807C35.2767 20.0298 35.2935 19.9584 35.308 19.8708C35.3365 19.696 35.3564 19.4521 35.3198 19.1745C35.2453 18.6069 34.9374 17.925 34.066 17.4258C32.7207 16.6551 31.5925 17.4094 31.2097 17.8603C31.1019 17.9872 31.1175 18.1775 31.2444 18.2852C31.3713 18.3929 31.5616 18.3774 31.6693 18.2505Z" fill="url(#paint0_linear_2837_12309)"/>
    </g>
    <defs>
        <linearGradient id="paint0_linear_2837_12309" x1="16.0214" y1="7.57976" x2="42.0775" y2="32.3871" gradientUnits="userSpaceOnUse">
            <stop stop-color="#8B47FC"/>
            <stop offset="1" stop-color="#11FFD5"/>
        </linearGradient>
    </defs>
</svg>