<svg width="16" height="16" viewBox="0 0 16 16" xmlns="http://www.w3.org/2000/svg">
    <path d="M15.6066 13.9193C16.0751 14.3853 16.0751 15.1414 15.6066 15.6074C15.1381 16.0734 14.378 16.0733 13.9094 15.6074L8.00082 9.68685L2.0502 15.6054C1.5817 16.0714 0.821573 16.0714 0.353024 15.6054C-0.115524 15.1394 -0.115474 14.3834 0.353024 13.9174L6.30564 8.00082L0.351374 2.03752C-0.117125 1.57155 -0.117125 0.81552 0.351374 0.349498C0.819872 -0.116524 1.58 -0.116474 2.04855 0.349498L8.00082 6.31478L13.9514 0.396249C14.4199 -0.0697233 15.1801 -0.0697233 15.6486 0.396249C16.1172 0.862222 16.1171 1.61825 15.6486 2.08427L9.69599 8.00082L15.6066 13.9193Z"/>
</svg>