<svg width="28" height="24" viewBox="0 0 28 20" xmlns="http://www.w3.org/2000/svg" >
    <path d="M23.0773 1.675C21.3845 0.8925 19.5743 0.323815 17.682 0C17.4495 0.415119 17.178 0.973462 16.9907 1.41762C14.9791 1.11874 12.9859 1.11874 11.0112 1.41762C10.824 0.973462 10.5463 0.415119 10.3118 0C8.41735 0.323815 6.60516 0.894589 4.91227 1.67914C1.4977 6.7767 0.572067 11.7476 1.03488 16.648C3.2996 18.3188 5.49439 19.3337 7.65214 19.998C8.18491 19.2736 8.66006 18.5035 9.06938 17.692C8.28979 17.3994 7.54313 17.0382 6.8376 16.619C7.02478 16.482 7.20786 16.3388 7.38474 16.1914C11.6879 18.1798 16.3634 18.1798 20.6152 16.1914C20.7941 16.3388 20.9772 16.482 21.1623 16.619C20.4547 17.0403 19.706 17.4014 18.9263 17.6941C19.3357 18.5035 19.8088 19.2756 20.3436 20C22.5034 19.3359 24.7003 18.3209 26.9651 16.648C27.508 10.9672 26.0374 6.04194 23.0773 1.675ZM9.65563 13.6344C8.36387 13.6344 7.3045 12.4429 7.3045 10.9921C7.3045 9.54131 8.34125 8.34789 9.65563 8.34789C10.9701 8.34789 12.0294 9.53923 12.0067 10.9921C12.0088 12.4429 10.9701 13.6344 9.65563 13.6344ZM18.3443 13.6344C17.0525 13.6344 15.9931 12.4429 15.9931 10.9921C15.9931 9.54131 17.0298 8.34789 18.3443 8.34789C19.6587 8.34789 20.7181 9.53923 20.6954 10.9921C20.6954 12.4429 19.6587 13.6344 18.3443 13.6344Z"/>
</svg>