<svg width="18" height="19" viewBox="0 0 18 19" xmlns="http://www.w3.org/2000/svg">
    <g clip-path="url(#clip0_3131_14413)">
        <path d="M10.125 1.85547C10.125 1.2332 9.62227 0.730469 9 0.730469C8.37773 0.730469 7.875 1.2332 7.875 1.85547V10.3879L5.29453 7.80742C4.85508 7.36797 4.14141 7.36797 3.70195 7.80742C3.2625 8.24688 3.2625 8.96055 3.70195 9.4L8.20195 13.9C8.64141 14.3395 9.35508 14.3395 9.79453 13.9L14.2945 9.4C14.734 8.96055 14.734 8.24688 14.2945 7.80742C13.8551 7.36797 13.1414 7.36797 12.702 7.80742L10.125 10.3879V1.85547ZM2.25 13.1055C1.00898 13.1055 0 14.1145 0 15.3555V16.4805C0 17.7215 1.00898 18.7305 2.25 18.7305H15.75C16.991 18.7305 18 17.7215 18 16.4805V15.3555C18 14.1145 16.991 13.1055 15.75 13.1055H12.1816L10.5891 14.698C9.71016 15.577 8.28633 15.577 7.40742 14.698L5.81836 13.1055H2.25ZM15.1875 15.0742C15.4113 15.0742 15.6259 15.1631 15.7841 15.3213C15.9424 15.4796 16.0312 15.6942 16.0312 15.918C16.0312 16.1417 15.9424 16.3564 15.7841 16.5146C15.6259 16.6728 15.4113 16.7617 15.1875 16.7617C14.9637 16.7617 14.7491 16.6728 14.5909 16.5146C14.4326 16.3564 14.3438 16.1417 14.3438 15.918C14.3438 15.6942 14.4326 15.4796 14.5909 15.3213C14.7491 15.1631 14.9637 15.0742 15.1875 15.0742Z" />
    </g>
    <defs>
        <clipPath id="clip0_3131_14413">
            <rect width="18" height="18" transform="translate(0 0.730469)"/>
        </clipPath>
    </defs>
</svg>