<svg width="24" height="24" viewBox="0 0 24 24" xmlns="http://www.w3.org/2000/svg">
    <path d="M10.9688 12C10.9688 11.4285 11.4285 10.9688 12 10.9688C12.5715 10.9688 13.0313 11.4285 13.0313 12C13.0313 12.5715 12.5715 13.0313 12 13.0313C11.4285 13.0313 10.9688 12.5715 10.9688 12ZM15.9789 6.28086C17.0531 5.92422 18.0758 6.94688 17.7191 8.02109L15.618 14.316C15.416 14.9305 14.9305 15.416 14.316 15.618L8.02109 17.7191C6.94688 18.0758 5.92422 17.0531 6.28086 15.9789L8.38203 9.68399C8.58398 9.06953 9.06953 8.58398 9.68399 8.38203L15.9789 6.28086ZM16.4129 7.58711L10.118 9.68399C9.91602 9.75274 9.75274 9.91602 9.68399 10.118L7.58711 16.4129L13.882 14.316C14.084 14.2473 14.2473 14.084 14.316 13.882L16.4129 7.58711ZM1 12C1 5.92422 5.92422 1 12 1C18.0758 1 23 5.92422 23 12C23 18.0758 18.0758 23 12 23C5.92422 23 1 18.0758 1 12ZM12 21.625C17.3152 21.625 21.625 17.3152 21.625 12C21.625 6.68477 17.3152 2.375 12 2.375C6.68477 2.375 2.375 6.68477 2.375 12C2.375 17.3152 6.68477 21.625 12 21.625Z" />
</svg>