<svg width="17" height="14" viewBox="0 0 17 14" xmlns="http://www.w3.org/2000/svg">
<path d="M0.5 1.30312C0.5 0.583437 1.08344 0 1.80313 0H15.1969C15.9156 0 16.5 0.583437 16.5 1.30312C16.5 1.60312 16.3969 1.89375 16.2063 2.125L11 8.51562V12.9906C11 13.5469 10.5469 14 9.99063 14C9.7625 14 9.54063 13.9219 9.3625 13.7531L6.47188 11.4875C6.175 11.25 6 10.8906 6 10.5094V8.51562L0.792906 2.125C0.603469 1.89375 0.5 1.60312 0.5 1.30312ZM2.2175 1.5L7.33125 7.775C7.44063 7.90937 7.5 8.07812 7.5 8.25V10.3875L9.5 11.975V8.25C9.5 8.07812 9.55937 7.90937 9.66875 7.775L14.7812 1.5H2.2175Z" />
</svg>
