<?xml version="1.0" encoding="UTF-8"?>
<svg xmlns="http://www.w3.org/2000/svg" xmlns:xlink="http://www.w3.org/1999/xlink" width="20px" height="20px" viewBox="0 0 20 20" version="1.1">
<g id="surface1">
<path d="M 19.550781 9.242188 L 13.089844 13.066406 C 12.964844 13.1875 12.800781 13.265625 12.625 13.285156 C 12.355469 13.359375 12.070312 13.265625 11.890625 13.050781 L 8.332031 9.527344 L 4.765625 13.066406 C 4.4375 13.394531 3.90625 13.394531 3.574219 13.066406 C 3.25 12.742188 3.25 12.214844 3.574219 11.890625 L 7.734375 7.765625 C 8.066406 7.4375 8.597656 7.4375 8.933594 7.765625 L 12.542969 11.339844 L 18.816406 7.621094 C 19.007812 7.5 19.242188 7.476562 19.457031 7.546875 C 19.671875 7.617188 19.84375 7.78125 19.925781 7.988281 C 20.125 8.441406 19.964844 8.972656 19.550781 9.242188 Z M 19.167969 18.332031 C 19.625 18.332031 20 18.707031 20 19.167969 C 20 19.625 19.625 20 19.167969 20 L 0.832031 20 C 0.375 20 0 19.625 0 19.167969 L 0 0.832031 C 0 0.375 0.375 0 0.832031 0 C 1.292969 0 1.667969 0.375 1.667969 0.832031 L 1.667969 18.332031 Z M 19.167969 18.332031 "/>
</g>
</svg>
