<svg width="24" height="24" viewBox="0 0 24 24" xmlns="http://www.w3.org/2000/svg">
<path d="M19.125 6.70779C19.125 7.78592 18.2859 8.58279 17.25 8.58279C16.2141 8.58279 15.375 7.78592 15.375 6.70779C15.375 5.71404 16.2141 4.83279 17.25 4.83279C18.2859 4.83279 19.125 5.71404 19.125 6.70779ZM18 14.6297V18.4781C18 19.6734 17.3719 20.775 16.3453 21.3844L12.1969 23.8406C11.85 24.0469 11.4187 24.0515 11.0672 23.8547C10.7156 23.6531 10.5 23.2781 10.5 22.875V17.4984C10.5 16.4344 10.0781 15.3797 9.32812 14.6297C8.57812 13.8797 7.56562 13.5 6.50156 13.5H1.125C0.720934 13.5 0.347528 13.2844 0.147465 12.9328C-0.0526443 12.5812 -0.0488474 12.15 0.157356 11.8031L2.61703 7.65467C3.22453 6.62811 4.32797 5.95779 5.52187 5.95779H9.37031C13.2047 -0.178051 19.1625 -0.400614 22.6828 0.247105C23.2312 0.347371 23.6531 0.771074 23.7516 1.31576C24.3984 4.83748 24.1781 10.7953 18 14.6297ZM9.27656 11.9015C9.88125 12.1969 10.4344 12.5953 10.8797 13.0781C11.4047 13.5656 11.8031 14.1187 12.0984 14.7234C17.0578 13.3172 19.4437 10.9922 20.6109 8.81248C21.7828 6.62342 21.8484 4.24076 21.6422 2.3592C19.7578 2.11029 17.3766 2.21904 15.1453 3.39045C13.0078 4.55436 10.6828 6.94217 9.27656 11.9015ZM1.96781 16.1953C3.57984 14.5828 6.19218 14.5828 7.80468 16.1953C9.41718 17.8078 9.41718 20.4187 7.80468 22.0312C5.48437 24.3515 0.0223323 23.9765 0.0223323 23.9765C0.0223323 23.9765 -0.352316 18.4734 1.96781 16.1953ZM3.02718 20.9719C3.02718 20.9719 4.84218 21.0984 5.61562 20.325C6.15 19.7906 6.15 18.9187 5.61562 18.3844C5.07656 17.85 4.20984 17.85 3.67406 18.3844C2.9025 19.1578 3.02718 20.9719 3.02718 20.9719Z"/>
</svg>
