<svg width="24" height="24" viewBox="0 0 24 24" fill="none" xmlns="http://www.w3.org/2000/svg">
<path d="M10.4462 3.1112L8.87533 3.6987C8.75033 3.74453 8.66699 3.86536 8.66699 3.9987C8.66699 4.13203 8.75033 4.25286 8.87533 4.2987L10.4462 4.8862L11.0337 6.45703C11.0795 6.58203 11.2003 6.66536 11.3337 6.66536C11.467 6.66536 11.5878 6.58203 11.6337 6.45703L12.2212 4.8862L13.792 4.2987C13.917 4.25286 14.0003 4.13203 14.0003 3.9987C14.0003 3.86536 13.917 3.74453 13.792 3.6987L12.2212 3.1112L11.6337 1.54036C11.5878 1.41536 11.467 1.33203 11.3337 1.33203C11.2003 1.33203 11.0795 1.41536 11.0337 1.54036L10.4462 3.1112ZM2.58783 17.807C1.80866 18.5862 1.80866 19.8529 2.58783 20.6362L4.02949 22.0779C4.80866 22.857 6.07533 22.857 6.85866 22.0779L22.7462 6.1862C23.5253 5.40703 23.5253 4.14036 22.7462 3.35703L21.3045 1.91953C20.5253 1.14036 19.2587 1.14036 18.4753 1.91953L2.58783 17.807ZM20.8587 4.7737L16.4837 9.1487L15.5128 8.17787L19.8878 3.80286L20.8587 4.7737ZM0.979492 6.21536C0.791992 6.2862 0.666992 6.46536 0.666992 6.66536C0.666992 6.86536 0.791992 7.04453 0.979492 7.11537L3.33366 7.9987L4.21699 10.3529C4.28783 10.5404 4.46699 10.6654 4.66699 10.6654C4.86699 10.6654 5.04616 10.5404 5.11699 10.3529L6.00033 7.9987L8.35449 7.11537C8.54199 7.04453 8.66699 6.86536 8.66699 6.66536C8.66699 6.46536 8.54199 6.2862 8.35449 6.21536L6.00033 5.33203L5.11699 2.97786C5.04616 2.79036 4.86699 2.66536 4.66699 2.66536C4.46699 2.66536 4.28783 2.79036 4.21699 2.97786L3.33366 5.33203L0.979492 6.21536ZM15.6462 16.882C15.4587 16.9529 15.3337 17.132 15.3337 17.332C15.3337 17.532 15.4587 17.7112 15.6462 17.782L18.0003 18.6654L18.8837 21.0195C18.9545 21.207 19.1337 21.332 19.3337 21.332C19.5337 21.332 19.7128 21.207 19.7837 21.0195L20.667 18.6654L23.0212 17.782C23.2087 17.7112 23.3337 17.532 23.3337 17.332C23.3337 17.132 23.2087 16.9529 23.0212 16.882L20.667 15.9987L19.7837 13.6445C19.7128 13.457 19.5337 13.332 19.3337 13.332C19.1337 13.332 18.9545 13.457 18.8837 13.6445L18.0003 15.9987L15.6462 16.882Z" fill="#FAFAFA"/>
</svg>
