<svg width="16" height="16" viewBox="0 0 16 16" fill="none" xmlns="http://www.w3.org/2000/svg">
    <path fill-rule="evenodd" clip-rule="evenodd" d="M8.05372 1.67273C8.18274 1.90166 8.16525 2.18501 8.00905 2.39632C7.43957 3.16676 7.16554 4.11601 7.23678 5.07142C7.30803 6.02682 7.71983 6.92493 8.39728 7.60238C9.07473 8.27983 9.97283 8.69163 10.9282 8.76288C11.8837 8.83412 12.8329 8.56009 13.6033 7.99061C13.8146 7.83441 14.098 7.81692 14.3269 7.94594C14.5558 8.07495 14.6876 8.32641 14.6634 8.58807C14.5469 9.84896 14.0737 11.0506 13.2992 12.0524C12.5247 13.0541 11.4808 13.8146 10.2899 14.2448C9.09894 14.6749 7.8101 14.757 6.57419 14.4815C5.33827 14.2059 4.20641 13.584 3.31102 12.6886C2.41564 11.7933 1.79377 10.6614 1.51819 9.42547C1.24261 8.18956 1.32472 6.90072 1.7549 5.70977C2.18508 4.51881 2.94554 3.475 3.94731 2.70048C4.94907 1.92595 6.1507 1.45274 7.41159 1.33621C7.67325 1.31203 7.92471 1.44381 8.05372 1.67273ZM6.21053 2.95943C5.69212 3.14699 5.20334 3.41473 4.76286 3.7553C3.96145 4.37492 3.35308 5.20997 3.00893 6.16273C2.66479 7.11549 2.5991 8.14656 2.81957 9.1353C3.04003 10.124 3.53752 11.0295 4.25383 11.7458C4.97014 12.4621 5.87563 12.9596 6.86436 13.1801C7.85309 13.4006 8.88416 13.3349 9.83693 12.9907C10.7897 12.6466 11.6247 12.0382 12.2444 11.2368C12.5849 10.7963 12.8527 10.3075 13.0402 9.78913C12.3382 10.0431 11.5851 10.1489 10.8291 10.0925C9.55521 9.99752 8.35774 9.44846 7.45447 8.54519C6.5512 7.64192 6.00214 6.44445 5.90714 5.17057C5.85077 4.41459 5.95653 3.66151 6.21053 2.95943Z" fill="#FF30D1"/>
</svg>