<svg width="14" height="14" viewBox="0 0 14 14" xmlns="http://www.w3.org/2000/svg">
    <path d="M7.87541 0.875C7.87541 0.391016 7.48439 0 7.00041 0C6.51643 0 6.12541 0.391016 6.12541 0.875V6.5625C6.12541 6.80312 5.92853 7 5.68791 7C5.44728 7 5.25041 6.80312 5.25041 6.5625V1.75C5.25041 1.26602 4.85939 0.875 4.37541 0.875C3.89143 0.875 3.50041 1.26602 3.50041 1.75V9.1875C3.50041 9.22852 3.50041 9.27227 3.50314 9.31328L1.84885 7.73828C1.41135 7.32266 0.719551 7.33906 0.301191 7.77656C-0.117168 8.21406 -0.0980276 8.90586 0.339472 9.32422L3.41291 12.25C4.59143 13.3738 6.15822 14 7.78791 14H8.31291C10.9707 14 13.1254 11.8453 13.1254 9.1875V3.5C13.1254 3.01602 12.7344 2.625 12.2504 2.625C11.7664 2.625 11.3754 3.01602 11.3754 3.5V6.5625C11.3754 6.80312 11.1785 7 10.9379 7C10.6973 7 10.5004 6.80312 10.5004 6.5625V1.75C10.5004 1.26602 10.1094 0.875 9.62541 0.875C9.14143 0.875 8.75041 1.26602 8.75041 1.75V6.5625C8.75041 6.80312 8.55354 7 8.31291 7C8.07229 7 7.87541 6.80312 7.87541 6.5625V0.875Z"/>
</svg>