<svg xmlns="http://www.w3.org/2000/svg" xmlns:xlink="http://www.w3.org/1999/xlink" width="10px" height="10px" viewBox="0 0 10 10" version="1.1">
<path d="M 5.625 0.625 C 5.625 0.28125 5.34375 0 5 0 C 4.65625 0 4.375 0.28125 4.375 0.625 L 4.375 5 C 4.375 5.34375 4.65625 5.625 5 5.625 C 5.34375 5.625 5.625 5.34375 5.625 5 Z M 2.804688 2.355469 C 3.070312 2.132812 3.101562 1.742188 2.882812 1.476562 C 2.660156 1.210938 2.265625 1.171875 2 1.394531 C 0.96875 2.253906 0.3125 3.550781 0.3125 5 C 0.3125 7.585938 2.414062 9.6875 5 9.6875 C 7.585938 9.6875 9.6875 7.585938 9.6875 5 C 9.6875 3.550781 9.027344 2.253906 7.996094 1.394531 C 7.730469 1.175781 7.335938 1.210938 7.113281 1.476562 C 6.894531 1.738281 6.929688 2.132812 7.195312 2.355469 C 7.953125 2.984375 8.4375 3.9375 8.4375 5 C 8.4375 6.898438 6.894531 8.4375 5 8.4375 C 3.101562 8.4375 1.558594 6.898438 1.558594 5 C 1.558594 3.9375 2.042969 2.984375 2.800781 2.355469 Z M 2.804688 2.355469 "/>
</svg>
