<svg width="24" height="24" viewBox="0 0 24 24" xmlns="http://www.w3.org/2000/svg">
    <path d="M12 4.00594L13.1297 2.08359C13.8891 0.792656 15.2766 0 16.7719 0H16.875C19.1531 0 21 1.84688 21 4.125C21 4.8 20.8359 5.39531 20.55 6H21.75C22.9922 6 24 7.00781 24 8.25V11.25C24 12.2297 23.3719 13.0641 22.5 13.3734V21C22.5 22.6547 21.1547 24 19.5 24H4.5C2.84297 24 1.5 22.6547 1.5 21V13.3734C0.62625 13.0641 0 12.2297 0 11.25V8.25C0 7.00781 1.00734 6 2.25 6H3.45C3.16219 5.39531 3 4.8 3 4.125C3 1.84688 4.84688 0 7.125 0H7.22812C8.72344 0 10.1109 0.792656 10.8703 2.08359L12 4.00594ZM13.5 8.25V11.25H21.75V8.25H13.5ZM10.5 8.25H2.25V11.25H10.5V8.25ZM10.5 13.5H3.75V21C3.75 21.4125 4.08563 21.75 4.5 21.75H10.5V13.5ZM13.5 21.75H19.5C19.9125 21.75 20.25 21.4125 20.25 21V13.5H13.5V21.75ZM16.875 6C17.9109 6 18.75 5.16094 18.75 4.125C18.75 3.08953 17.9109 2.25 16.875 2.25H16.7719C16.0734 2.25 15.4266 2.62078 15.0703 3.22406L13.4391 6H16.875ZM10.5609 6L8.92969 3.22406C8.57344 2.62078 7.92656 2.25 7.22812 2.25H7.125C6.08906 2.25 5.25 3.08953 5.25 4.125C5.25 5.16094 6.08906 6 7.125 6H10.5609Z"/>
</svg>