<svg width="24" height="24" viewBox="0 0 24 24" class="fill-light dark:fill-dark" xmlns="http://www.w3.org/2000/svg">
<path d="M19.5 9.75C19.5 11.9016 18.8016 13.8891 17.625 15.5016L22.8094 20.6906L23.8734 21.75L21.75 23.8734L20.6906 22.8141L15.5016 17.625C13.8891 18.8062 11.9016 19.5 9.75 19.5C4.36406 19.5 0 15.1359 0 9.75C0 4.36406 4.36406 0 9.75 0C15.1359 0 19.5 4.36406 19.5 9.75ZM9.75 16.5C13.4766 16.5 16.5 13.4766 16.5 9.75C16.5 6.02344 13.4766 3 9.75 3C6.02344 3 3 6.02344 3 9.75C3 13.4766 6.02344 16.5 9.75 16.5Z"/>
</svg>
