<svg width="20" height="24" viewBox="0 0 20 24" xmlns="http://www.w3.org/2000/svg">
    <path fill-rule="evenodd" clip-rule="evenodd" d="M0.0013181 6.5389V8.40199C0.0013181 9.02271 0.00487248 9.64436 0.029753 10.2725C0.0208671 10.5023 0.0724054 10.7311 0.180814 10.9303C0.288333 11.1304 0.446502 11.2934 0.637549 11.4009C3.58412 13.2149 6.52891 15.0354 9.47104 16.8623C9.6763 17.0004 9.91444 17.0708 10.157 17.0652C10.3996 17.0597 10.6351 16.9791 10.835 16.8318C11.1576 16.6205 11.4908 16.4158 11.8249 16.211C11.9662 16.1249 12.1075 16.0378 12.2479 15.9507C12.8557 15.5709 12.8628 15.4727 12.2479 15.0965C9.39017 13.3177 6.53335 11.5427 3.67564 9.77036C2.52403 9.05143 2.50981 7.86557 3.67564 7.13553C4.35453 6.71399 5.03608 6.29616 5.7194 5.87741C6.86746 5.17331 8.01641 4.46828 9.15292 3.74842C9.39462 3.57703 9.67897 3.48716 9.96953 3.4918C10.2601 3.49643 10.5418 3.59556 10.7782 3.77436C12.9907 5.15385 15.2158 6.51759 17.4408 7.88132C18.1117 8.29267 18.7826 8.70401 19.4526 9.11536C19.8587 9.36365 19.9964 9.29231 19.9964 8.80314V6.83629C20.0151 6.57966 19.9609 6.32211 19.8418 6.0979C19.7227 5.8737 19.5441 5.69119 19.3282 5.57539C16.4003 3.78919 13.4741 1.99836 10.5516 0.204746C10.3552 0.0713368 10.1268 0 9.894 0C9.66119 0 9.43283 0.0713368 9.23645 0.204746C6.37341 1.93072 3.50681 3.65207 0.637549 5.36879C0.437616 5.47811 0.270561 5.64672 0.15771 5.85425C0.0448591 6.06177 -0.00934499 6.29987 0.0013181 6.5389ZM19.9928 17.4729V15.6098C19.9928 15.4208 19.9911 15.2309 19.9902 15.04C19.9875 14.6101 19.984 14.1775 19.9964 13.7383C20.0124 13.4984 19.9617 13.2594 19.8498 13.0509C19.7387 12.8425 19.5717 12.6729 19.3708 12.5645C16.4358 10.758 13.5017 8.94767 10.5693 7.13275C10.3667 6.991 10.1295 6.91503 9.88778 6.91503C9.6452 6.91503 9.40794 6.991 9.20623 7.13275C8.94143 7.30229 8.67308 7.46627 8.40473 7.63118C8.18347 7.76644 7.96221 7.90263 7.74361 8.04067C7.18558 8.39458 7.19624 8.52984 7.76849 8.88745L16.3443 14.2025C17.4781 14.9214 17.4959 16.1295 16.3656 16.8373C15.238 17.5396 14.1059 18.2335 12.9748 18.9283C12.2203 19.3916 11.4659 19.8539 10.7124 20.3189C10.5205 20.4477 10.2992 20.5153 10.0726 20.5153C9.84602 20.5153 9.62476 20.4468 9.43283 20.3189C9.09249 20.1142 8.75661 19.9057 8.41983 19.6973C8.22523 19.5768 8.03152 19.4564 7.83603 19.3369C5.50614 17.899 3.17537 16.4649 0.843703 15.0345C0.0413048 14.5416 0.00309528 14.5675 0.00309528 15.5236V17.1718C-0.0111222 17.421 0.0430819 17.6684 0.159487 17.8851C0.275893 18.1019 0.44828 18.278 0.657098 18.391L9.52257 23.8144C9.69229 23.9312 9.88867 23.9951 10.0895 23.9997C10.2912 24.0044 10.4894 23.9497 10.6635 23.8404C13.5728 22.1042 16.4829 20.3578 19.3948 18.6013C19.5868 18.4957 19.7458 18.3317 19.8524 18.1316C19.9564 17.9324 20.0062 17.7036 19.9928 17.4729Z"/>
</svg>