<svg width="724" height="829" viewBox="0 0 724 829" fill="none" xmlns="http://www.w3.org/2000/svg">
<mask id="path-1-inside-1_1641_25949" fill="white">
<path d="M358.829 12.6649C367.061 12.6649 374.977 15.1979 381.626 19.6306C483.578 79.7889 585.847 139.631 687.8 199.472C695.399 203.272 701.415 209.604 705.847 216.886C709.963 224.485 711.863 233.034 711.23 241.583V307.441C711.23 317.889 709.33 322.638 704.264 322.638C701.415 322.638 697.299 321.055 692.233 317.889C668.803 304.274 645.372 290.343 621.942 276.728C544.37 231.134 466.481 185.541 389.541 139.314C381.309 133.298 371.494 130.132 361.362 129.815C361.045 129.815 360.729 129.815 360.729 129.815C350.913 129.815 341.098 132.665 332.866 138.364C293.288 162.427 253.394 185.857 213.183 209.604C189.436 223.536 165.689 237.467 141.943 251.715C101.098 276.095 101.731 315.989 141.943 340.053C241.679 399.261 341.415 458.786 441.151 518.311C462.681 530.976 462.365 534.142 441.151 546.807C436.402 549.657 431.336 552.506 426.27 555.673C414.555 562.638 402.84 569.287 391.758 576.57C384.792 581.636 376.56 584.169 368.011 584.485C367.694 584.485 367.378 584.485 367.061 584.485C358.829 584.485 350.913 582.269 343.948 577.836C241.362 516.728 138.46 455.62 35.5574 395.145C28.9083 391.662 23.5257 385.963 19.7262 379.314C15.9268 372.665 14.027 365.066 14.3436 357.15C13.3938 336.253 13.3938 315.356 13.3938 294.459V231.451C13.0772 223.536 14.9769 215.62 18.7764 208.654C22.5758 201.689 28.5917 195.989 35.5574 192.507C135.927 134.881 235.979 77.2559 336.032 19.6306C342.681 15.1979 350.913 12.6649 358.829 12.6649ZM358.829 244.116C367.378 244.116 375.61 246.649 382.576 251.398C484.845 312.19 587.431 372.665 689.7 433.14C696.665 436.623 702.681 442.322 706.481 449.287C710.28 456.253 712.18 464.169 711.547 472.401C711.23 486.966 711.23 501.53 711.23 516.095C711.23 522.427 711.23 528.76 711.23 535.092V597.467C711.547 605.066 709.964 612.981 706.481 619.63C702.681 626.279 697.299 631.662 690.649 635.462C589.014 694.353 487.378 752.612 386.059 810.87C380.359 814.353 373.71 816.253 366.745 816.253C366.428 816.253 366.111 816.253 365.795 816.253C358.829 816.253 351.863 814.037 346.164 809.921L36.8239 628.496C29.5415 624.696 23.5257 618.681 19.4096 611.715C15.2935 604.432 13.3938 596.2 14.027 587.968V532.876C14.027 513.878 14.3436 505.963 20.6761 505.963C24.7922 505.963 32.0745 509.762 43.4729 516.411C124.845 564.221 206.217 612.348 287.589 660.475C294.555 664.591 301.204 668.39 307.853 672.506C319.568 679.472 331.283 686.438 343.315 693.404C349.964 697.836 357.879 700.052 365.795 700.052C373.71 700.052 381.309 697.836 388.275 693.404C414.555 677.889 440.834 662.374 467.114 646.86C506.692 623.746 545.953 600.316 585.531 576.886C625.109 553.14 624.475 512.612 584.898 488.549L285.689 310.607C265.742 298.575 265.425 294.142 284.739 282.111C292.338 277.361 299.937 272.929 307.853 268.496C317.351 263.113 326.534 257.414 335.716 251.715C342.048 246.649 350.28 244.116 358.829 244.116ZM358.829 0C348.38 0 338.249 3.16623 329.383 8.86543C231.23 65.5409 130.544 123.483 29.8582 181.425C20.6761 186.174 13.3938 193.456 8.32782 202.638C3.26186 211.504 0.728875 221.636 1.36212 232.084V294.142C1.36212 317.256 1.67874 336.886 2.31199 356.834C1.99537 366.649 4.52835 376.464 9.27769 385.013C14.027 393.562 21.3093 400.844 29.8582 405.594C133.394 466.702 236.929 528.126 337.615 588.285C346.481 593.984 356.929 596.834 367.378 596.834C367.694 596.834 368.328 596.834 368.644 596.834C379.41 596.517 390.175 593.034 399.04 587.018C409.805 580.369 420.254 574.037 432.919 566.754C437.985 563.905 442.734 561.055 447.8 557.889C458.248 551.557 469.964 544.591 469.964 532.559C469.964 520.528 458.248 513.562 447.8 507.546C347.747 447.704 247.061 387.863 148.592 329.288C133.077 320.105 124.528 308.074 124.528 296.042C124.528 284.01 133.077 272.295 148.592 262.797C172.972 248.232 197.668 233.667 219.832 220.686C259.093 197.573 299.304 173.826 339.832 149.446L340.148 149.129L340.465 148.813C346.481 144.697 353.763 142.48 361.045 142.48H361.679C369.278 142.48 376.56 145.013 382.576 149.446L382.892 149.762L383.209 150.079C460.465 196.306 539.304 242.85 615.927 287.493L616.876 288.127C639.99 301.741 663.103 315.356 685.9 328.654C693.499 333.087 699.198 334.987 704.264 334.987C711.547 334.987 723.895 331.504 723.895 307.124V241.9C724.528 231.134 722.312 220.053 716.929 210.554C711.547 200.739 703.631 193.14 694.132 188.074C595.346 130.132 492.444 69.9736 388.592 8.86543C379.726 3.16623 369.278 0 358.829 0ZM358.829 231.451C347.747 231.451 337.299 234.617 328.117 240.633C319.884 245.699 311.652 250.448 303.42 255.198L300.57 257.098C293.605 261.214 285.689 265.963 277.457 271.029C267.008 277.361 256.877 284.327 256.877 295.725C256.877 307.124 267.008 314.09 278.407 321.055L577.615 498.997C592.813 508.179 601.362 520.528 601.362 532.876C601.362 544.907 593.13 556.622 578.248 565.488C543.42 586.068 508.275 606.965 473.763 627.229L459.832 635.462L442.734 645.593C422.154 657.625 401.573 669.973 380.993 682.005H380.676H380.359C375.61 684.855 370.227 686.438 364.845 686.438C359.462 686.438 354.08 684.855 349.33 682.005H349.014H348.697C337.932 675.673 326.85 669.34 316.085 663.008L313.235 661.425L308.803 658.892C303.42 655.725 298.038 652.559 292.655 649.393C211.916 601.583 129.594 553.14 48.5389 505.33C34.2909 497.097 26.6919 492.981 19.4096 492.981C15.9268 492.981 4.52835 494.248 1.36212 509.446C0.412253 514.828 0.0956297 521.477 0.0956297 532.559V587.335C-0.537615 598.1 1.99536 608.549 7.06133 617.731C12.4439 627.229 20.0429 634.512 29.2249 639.578L338.249 820.686C346.164 825.752 355.03 828.601 364.528 828.918C364.845 828.918 365.161 828.918 365.478 828.918C374.344 828.918 383.209 826.385 391.125 821.952C491.177 764.644 593.763 705.752 695.715 646.86C704.581 642.111 711.863 635.145 716.613 626.279C721.362 617.414 723.578 607.599 723.262 597.783V535.725C723.262 531.609 723.262 527.177 723.262 523.06V516.728V514.512C723.262 501.214 722.945 487.599 723.578 473.984C724.211 463.535 721.995 453.087 716.929 444.221C711.863 435.039 704.581 427.757 695.399 423.008C587.114 359.05 486.745 299.842 388.908 241.583C380.043 234.617 369.594 231.451 358.829 231.451Z"/>
</mask>
<path d="M358.829 12.6649C367.061 12.6649 374.977 15.1979 381.626 19.6306C483.578 79.7889 585.847 139.631 687.8 199.472C695.399 203.272 701.415 209.604 705.847 216.886C709.963 224.485 711.863 233.034 711.23 241.583V307.441C711.23 317.889 709.33 322.638 704.264 322.638C701.415 322.638 697.299 321.055 692.233 317.889C668.803 304.274 645.372 290.343 621.942 276.728C544.37 231.134 466.481 185.541 389.541 139.314C381.309 133.298 371.494 130.132 361.362 129.815C361.045 129.815 360.729 129.815 360.729 129.815C350.913 129.815 341.098 132.665 332.866 138.364C293.288 162.427 253.394 185.857 213.183 209.604C189.436 223.536 165.689 237.467 141.943 251.715C101.098 276.095 101.731 315.989 141.943 340.053C241.679 399.261 341.415 458.786 441.151 518.311C462.681 530.976 462.365 534.142 441.151 546.807C436.402 549.657 431.336 552.506 426.27 555.673C414.555 562.638 402.84 569.287 391.758 576.57C384.792 581.636 376.56 584.169 368.011 584.485C367.694 584.485 367.378 584.485 367.061 584.485C358.829 584.485 350.913 582.269 343.948 577.836C241.362 516.728 138.46 455.62 35.5574 395.145C28.9083 391.662 23.5257 385.963 19.7262 379.314C15.9268 372.665 14.027 365.066 14.3436 357.15C13.3938 336.253 13.3938 315.356 13.3938 294.459V231.451C13.0772 223.536 14.9769 215.62 18.7764 208.654C22.5758 201.689 28.5917 195.989 35.5574 192.507C135.927 134.881 235.979 77.2559 336.032 19.6306C342.681 15.1979 350.913 12.6649 358.829 12.6649ZM358.829 244.116C367.378 244.116 375.61 246.649 382.576 251.398C484.845 312.19 587.431 372.665 689.7 433.14C696.665 436.623 702.681 442.322 706.481 449.287C710.28 456.253 712.18 464.169 711.547 472.401C711.23 486.966 711.23 501.53 711.23 516.095C711.23 522.427 711.23 528.76 711.23 535.092V597.467C711.547 605.066 709.964 612.981 706.481 619.63C702.681 626.279 697.299 631.662 690.649 635.462C589.014 694.353 487.378 752.612 386.059 810.87C380.359 814.353 373.71 816.253 366.745 816.253C366.428 816.253 366.111 816.253 365.795 816.253C358.829 816.253 351.863 814.037 346.164 809.921L36.8239 628.496C29.5415 624.696 23.5257 618.681 19.4096 611.715C15.2935 604.432 13.3938 596.2 14.027 587.968V532.876C14.027 513.878 14.3436 505.963 20.6761 505.963C24.7922 505.963 32.0745 509.762 43.4729 516.411C124.845 564.221 206.217 612.348 287.589 660.475C294.555 664.591 301.204 668.39 307.853 672.506C319.568 679.472 331.283 686.438 343.315 693.404C349.964 697.836 357.879 700.052 365.795 700.052C373.71 700.052 381.309 697.836 388.275 693.404C414.555 677.889 440.834 662.374 467.114 646.86C506.692 623.746 545.953 600.316 585.531 576.886C625.109 553.14 624.475 512.612 584.898 488.549L285.689 310.607C265.742 298.575 265.425 294.142 284.739 282.111C292.338 277.361 299.937 272.929 307.853 268.496C317.351 263.113 326.534 257.414 335.716 251.715C342.048 246.649 350.28 244.116 358.829 244.116ZM358.829 0C348.38 0 338.249 3.16623 329.383 8.86543C231.23 65.5409 130.544 123.483 29.8582 181.425C20.6761 186.174 13.3938 193.456 8.32782 202.638C3.26186 211.504 0.728875 221.636 1.36212 232.084V294.142C1.36212 317.256 1.67874 336.886 2.31199 356.834C1.99537 366.649 4.52835 376.464 9.27769 385.013C14.027 393.562 21.3093 400.844 29.8582 405.594C133.394 466.702 236.929 528.126 337.615 588.285C346.481 593.984 356.929 596.834 367.378 596.834C367.694 596.834 368.328 596.834 368.644 596.834C379.41 596.517 390.175 593.034 399.04 587.018C409.805 580.369 420.254 574.037 432.919 566.754C437.985 563.905 442.734 561.055 447.8 557.889C458.248 551.557 469.964 544.591 469.964 532.559C469.964 520.528 458.248 513.562 447.8 507.546C347.747 447.704 247.061 387.863 148.592 329.288C133.077 320.105 124.528 308.074 124.528 296.042C124.528 284.01 133.077 272.295 148.592 262.797C172.972 248.232 197.668 233.667 219.832 220.686C259.093 197.573 299.304 173.826 339.832 149.446L340.148 149.129L340.465 148.813C346.481 144.697 353.763 142.48 361.045 142.48H361.679C369.278 142.48 376.56 145.013 382.576 149.446L382.892 149.762L383.209 150.079C460.465 196.306 539.304 242.85 615.927 287.493L616.876 288.127C639.99 301.741 663.103 315.356 685.9 328.654C693.499 333.087 699.198 334.987 704.264 334.987C711.547 334.987 723.895 331.504 723.895 307.124V241.9C724.528 231.134 722.312 220.053 716.929 210.554C711.547 200.739 703.631 193.14 694.132 188.074C595.346 130.132 492.444 69.9736 388.592 8.86543C379.726 3.16623 369.278 0 358.829 0ZM358.829 231.451C347.747 231.451 337.299 234.617 328.117 240.633C319.884 245.699 311.652 250.448 303.42 255.198L300.57 257.098C293.605 261.214 285.689 265.963 277.457 271.029C267.008 277.361 256.877 284.327 256.877 295.725C256.877 307.124 267.008 314.09 278.407 321.055L577.615 498.997C592.813 508.179 601.362 520.528 601.362 532.876C601.362 544.907 593.13 556.622 578.248 565.488C543.42 586.068 508.275 606.965 473.763 627.229L459.832 635.462L442.734 645.593C422.154 657.625 401.573 669.973 380.993 682.005H380.676H380.359C375.61 684.855 370.227 686.438 364.845 686.438C359.462 686.438 354.08 684.855 349.33 682.005H349.014H348.697C337.932 675.673 326.85 669.34 316.085 663.008L313.235 661.425L308.803 658.892C303.42 655.725 298.038 652.559 292.655 649.393C211.916 601.583 129.594 553.14 48.5389 505.33C34.2909 497.097 26.6919 492.981 19.4096 492.981C15.9268 492.981 4.52835 494.248 1.36212 509.446C0.412253 514.828 0.0956297 521.477 0.0956297 532.559V587.335C-0.537615 598.1 1.99536 608.549 7.06133 617.731C12.4439 627.229 20.0429 634.512 29.2249 639.578L338.249 820.686C346.164 825.752 355.03 828.601 364.528 828.918C364.845 828.918 365.161 828.918 365.478 828.918C374.344 828.918 383.209 826.385 391.125 821.952C491.177 764.644 593.763 705.752 695.715 646.86C704.581 642.111 711.863 635.145 716.613 626.279C721.362 617.414 723.578 607.599 723.262 597.783V535.725C723.262 531.609 723.262 527.177 723.262 523.06V516.728V514.512C723.262 501.214 722.945 487.599 723.578 473.984C724.211 463.535 721.995 453.087 716.929 444.221C711.863 435.039 704.581 427.757 695.399 423.008C587.114 359.05 486.745 299.842 388.908 241.583C380.043 234.617 369.594 231.451 358.829 231.451Z" fill="url(#paint0_linear_1641_25949)" fill-opacity="0.06" stroke="#151515" stroke-width="10" mask="url(#path-1-inside-1_1641_25949)"/>
<defs>
<linearGradient id="paint0_linear_1641_25949" x1="21.399" y1="390.282" x2="692.972" y2="390.135" gradientUnits="userSpaceOnUse">
<stop stop-color="#FFD600"/>
<stop offset="0.0001" stop-color="#FFD600"/>
<stop offset="1" stop-color="#FF30D1"/>
</linearGradient>
</defs>
</svg>
