<svg width="16" height="16" viewBox="0 0 16 16" xmlns="http://www.w3.org/2000/svg">
    <path d="M0.218947 11.7812L3.21895 14.7812C3.5127 15.075 3.9877 15.075 4.27832 14.7812L7.27832 11.7812C7.57207 11.4875 7.57207 11.0125 7.27832 10.7219C6.98457 10.4312 6.50957 10.4281 6.21895 10.7219L4.5002 12.4406V1.74998C4.5002 1.33435 4.16582 0.999976 3.7502 0.999976C3.33457 0.999976 3.0002 1.33435 3.0002 1.74998V12.4406L1.28145 10.7187C0.987697 10.425 0.512697 10.425 0.222072 10.7187C-0.0685531 11.0125 -0.0716781 11.4875 0.222072 11.7781L0.218947 11.7812ZM11.2189 1.21873L8.21895 4.21873C7.9252 4.51248 7.9252 4.98748 8.21895 5.2781C8.5127 5.56873 8.9877 5.57185 9.27832 5.2781L10.9971 3.55935V14.25C10.9971 14.6656 11.3314 15 11.7471 15C12.1627 15 12.4971 14.6656 12.4971 14.25V3.55935L14.2158 5.2781C14.5096 5.57185 14.9846 5.57185 15.2752 5.2781C15.5658 4.98435 15.5689 4.50935 15.2752 4.21873L12.2814 1.21873C11.9877 0.924976 11.5127 0.924976 11.2221 1.21873H11.2189Z"/>
</svg>