<svg width="14" height="14" viewBox="0 0 14 14" xmlns="http://www.w3.org/2000/svg">
    <path d="M8.95508 2.32969C8.83203 2.37617 8.75 2.49375 8.75 2.625C8.75 2.75625 8.83203 2.87383 8.95508 2.92031L10.5 3.5L11.0797 5.04492C11.1262 5.16797 11.2437 5.25 11.375 5.25C11.5063 5.25 11.6238 5.16797 11.6703 5.04492L12.25 3.5L13.7949 2.92031C13.918 2.87383 14 2.75625 14 2.625C14 2.49375 13.918 2.37617 13.7949 2.32969L12.25 1.75L11.6703 0.205078C11.6238 0.0820312 11.5063 0 11.375 0C11.2437 0 11.1262 0.0820312 11.0797 0.205078L10.5 1.75L8.95508 2.32969ZM5.6082 2.0043C5.53711 1.84844 5.38125 1.75 5.21172 1.75C5.04219 1.75 4.88633 1.84844 4.81523 2.0043L3.37148 5.12148L0.254297 6.5625C0.0984375 6.63359 0 6.78945 0 6.96172C0 7.13398 0.0984375 7.28711 0.254297 7.3582L3.37422 8.79922L4.8125 11.9164C4.88359 12.0723 5.03945 12.1707 5.20898 12.1707C5.37852 12.1707 5.53438 12.0723 5.60547 11.9164L7.04648 8.79648L10.1664 7.35547C10.3223 7.28438 10.4207 7.12852 10.4207 6.95898C10.4207 6.78945 10.3223 6.63359 10.1664 6.5625L7.04922 5.12422L5.6082 2.0043ZM10.5 10.5L8.95508 11.0797C8.83203 11.1262 8.75 11.2437 8.75 11.375C8.75 11.5063 8.83203 11.6238 8.95508 11.6703L10.5 12.25L11.0797 13.7949C11.1262 13.918 11.2437 14 11.375 14C11.5063 14 11.6238 13.918 11.6703 13.7949L12.25 12.25L13.7949 11.6703C13.918 11.6238 14 11.5063 14 11.375C14 11.2437 13.918 11.1262 13.7949 11.0797L12.25 10.5L11.6703 8.95508C11.6238 8.83203 11.5063 8.75 11.375 8.75C11.2437 8.75 11.1262 8.83203 11.0797 8.95508L10.5 10.5Z"/>
</svg>