<svg width="18" height="24" viewBox="0 0 18 24" xmlns="http://www.w3.org/2000/svg">
    <path fill-rule="evenodd" clip-rule="evenodd" d="M1.21815 19.8325C2.84235 22.4422 5.75158 24 8.99998 24C12.2484 24 15.157 22.4422 16.7818 19.8325C18.4061 17.2232 18.4061 14.1077 16.7818 11.4979L9.93752 0.502084C9.52085 -0.167362 8.47912 -0.167361 8.06244 0.502085L1.21815 11.4979C-0.40605 14.1071 -0.40605 17.2228 1.21815 19.8325ZM7.07195 5.73329L8.53118 3.3888C8.73955 3.05407 9.26042 3.05407 9.46879 3.3888L15.0826 12.4082C16.1141 14.0652 16.3077 15.983 15.6634 17.7379C15.5964 17.4516 15.5026 17.1586 15.3762 16.8627C14.6008 15.0475 12.8474 13.6468 10.1639 12.6992C8.3189 12.05 7.14124 11.0953 6.6627 9.86131C6.04633 8.27085 6.69011 6.5365 7.07195 5.73329ZM4.58364 9.73104L2.9173 12.4082C1.64759 14.4481 1.64759 16.8833 2.9173 18.9232C4.18701 20.9631 6.46056 22.1804 8.99998 22.1804C10.6866 22.1804 12.2564 21.6429 13.4925 20.6842C13.6537 20.3077 14.1529 18.9297 13.5361 17.5094C12.9665 16.1979 11.5957 15.1509 9.46151 14.3968C7.04904 13.548 5.48172 12.2228 4.80398 10.4593C4.71063 10.2165 4.6381 9.97316 4.58364 9.73104Z"/>
</svg>