<svg width="16" height="16" id="sweep" data-name="sweep" xmlns="http://www.w3.org/2000/svg" viewBox="0 0 440.6 441">
    <path d="M324.1,159.1a62.1,62.1,0,0,1,4.7-6.5Q386.9,94.6,445,36.4c4.4-4.4,9-8.6,16-6.2,8.8,2.9,12.1,12.9,6.6,20.3a52.7,52.7,0,0,1-5,5.6L347.2,171.5c-1.6,1.6-3.8,2.6-5.6,3.8,7.6,8.1,14.3,14.4,20,21.6,16.1,20.1,17.4,41.8,5,64.2Q317.9,349,268.9,436.7c-3.4,6.2-6.8,12.5-10.4,18.6-10.1,17.4-30.3,20.4-44.6,6.2Q126,373.9,38.4,285.9c-14.1-14-10.6-34.9,7.1-44.9,24.2-13.6,48.5-27,72.8-40.5l118.9-66.2c26.5-14.7,51.9-11.2,73.1,10.4C314.5,148.9,318.5,153.3,324.1,159.1ZM311.3,303.9,196.1,188.7,58.3,265.4l51.8,51.8c6.9-7.4,14.3-15.5,21.9-23.3a137.2,137.2,0,0,1,14.3-13.2,12,12,0,0,1,16.6,1.2c4.9,5.4,5.4,11.3,1.1,17.1a52.7,52.7,0,0,1-5,5.6c-10.3,10.7-20.8,21.3-30.9,31.6,35.6,35.6,70.8,70.7,106.2,106.2ZM326,277.3l16.3-28.2c8.2-14.1,7.4-25.3-3.8-37.1-16.4-17.1-33-34.1-50-50.7-9.2-9-20.6-12.1-32.6-6s-22.6,12.6-33.2,18.7Z" transform="translate(-29.7 -29.5)"/>
</svg>