<svg width="14" height="14" viewBox="0 0 14 14" xmlns="http://www.w3.org/2000/svg">
    <path d="M0.874805 2.62506H9.6248V0.875057C9.6248 0.522323 9.83809 0.202401 10.1662 0.0656824C10.4943 -0.0710364 10.8689 0.00552612 11.1205 0.254354L13.7455 2.87935C13.9096 3.04342 14.0025 3.2649 14.0025 3.49732C14.0025 3.72974 13.9096 3.95123 13.7455 4.11529L11.1205 6.74029C10.8689 6.99185 10.4943 7.06568 10.1662 6.92896C9.83809 6.79224 9.6248 6.47506 9.6248 6.11959V4.37506H0.874805C0.39082 4.37506 -0.000195313 3.98404 -0.000195313 3.50006C-0.000195313 3.01607 0.39082 2.62506 0.874805 2.62506ZM13.1248 9.62506C13.6088 9.62506 13.9998 10.0161 13.9998 10.5001C13.9998 10.984 13.6088 11.3751 13.1248 11.3751H4.3748V13.1251C4.3748 13.4778 4.16152 13.7977 3.8334 13.9344C3.50527 14.0712 3.13066 13.9946 2.8791 13.7458L0.254102 11.1208C0.0900391 10.9567 -0.00292969 10.7352 -0.00292969 10.5028C-0.00292969 10.2704 0.0900391 10.0489 0.254102 9.88482L2.8791 7.25982C3.13066 7.00826 3.50527 6.93443 3.8334 7.07115C4.16152 7.20787 4.3748 7.52506 4.3748 7.88053V9.63053H13.1248V9.62506Z"/>
</svg>