<svg class="fill-light-text dark:fill-dark-text" width="24" height="20" viewBox="0 0 24 20" fill="none" xmlns="http://www.w3.org/2000/svg">
    <path d="M23.456 2.40195C23.079 2.57009 22.6914 2.71199 22.2954 2.82719C22.7642 2.294 23.1217 1.6666 23.34 0.980055C23.389 0.826165 23.3382 0.65772 23.2125 0.557073C23.0867 0.456348 22.9122 0.444283 22.7738 0.526715C21.9327 1.02832 21.0251 1.38879 20.0736 1.59958C19.1151 0.657875 17.8132 0.121948 16.4673 0.121948C13.6265 0.121948 11.3152 2.4457 11.3152 5.30196C11.3152 5.52692 11.3294 5.75063 11.3574 5.97122C7.83212 5.66003 4.55474 3.91788 2.30417 1.1422C2.22396 1.04326 2.1004 0.98994 1.9739 1.00014C1.84732 1.0101 1.73358 1.08187 1.66964 1.19217C1.21317 1.97968 0.971858 2.88036 0.971858 3.79677C0.971858 5.04493 1.41508 6.22919 2.19802 7.15455C1.95996 7.07164 1.72894 6.96805 1.50845 6.84498C1.39007 6.77873 1.24561 6.77975 1.12801 6.84755C1.01034 6.91535 0.936556 7.04005 0.933459 7.17634C0.932917 7.19931 0.932917 7.22226 0.932917 7.24554C0.932917 9.10863 1.93023 10.786 3.455 11.7002C3.32401 11.6871 3.19309 11.668 3.06303 11.643C2.92893 11.6173 2.79105 11.6645 2.70063 11.7673C2.61005 11.8701 2.58008 12.0133 2.62181 12.1441C3.1862 13.9157 4.63928 15.2188 6.39592 15.6161C4.93897 16.5336 3.27283 17.0143 1.52378 17.0143C1.15883 17.0143 0.791781 16.9927 0.432556 16.9499C0.254106 16.9286 0.0834742 17.0345 0.0227002 17.2052C-0.0380738 17.3758 0.0263389 17.5662 0.178158 17.664C2.4251 19.1125 5.02321 19.8782 7.69145 19.8782C12.9369 19.8782 16.2183 17.3912 18.0474 15.3049C20.3281 12.7033 21.6362 9.25995 21.6362 5.85766C21.6362 5.71551 21.634 5.57199 21.6297 5.42891C22.5295 4.74727 23.3042 3.92233 23.9347 2.97415C24.0304 2.83016 24.0201 2.63983 23.9092 2.50728C23.7983 2.37464 23.6137 2.33174 23.456 2.40195Z" fill="white"/>
</svg>