<svg xmlns="http://www.w3.org/2000/svg" xmlns:xlink="http://www.w3.org/1999/xlink" width="9px" height="10px" viewBox="0 0 9 10" version="1.1">
<path  d="M 5.464844 5.9375 L 3.535156 5.9375 C 1.582031 5.9375 0 7.476562 0 9.375 C 0 9.71875 0.289062 10 0.644531 10 L 8.355469 10 C 8.710938 10 9 9.71875 9 9.375 C 9 7.476562 7.417969 5.9375 5.464844 5.9375 Z M 0.984375 9.0625 C 1.144531 7.828125 2.226562 6.875 3.535156 6.875 L 5.464844 6.875 C 6.773438 6.875 7.855469 7.832031 8.015625 9.0625 Z M 4.5 5 C 5.921875 5 7.070312 3.878906 7.070312 2.5 C 7.070312 1.121094 5.921875 0 4.5 0 C 3.078125 0 1.929688 1.121094 1.929688 2.5 C 1.929688 3.882812 3.078125 5 4.5 5 Z M 4.5 0.9375 C 5.386719 0.9375 6.105469 1.636719 6.105469 2.5 C 6.105469 3.363281 5.386719 4.0625 4.5 4.0625 C 3.613281 4.0625 2.894531 3.359375 2.894531 2.5 C 2.894531 1.636719 3.613281 0.9375 4.5 0.9375 Z M 4.5 0.9375 "/>
</svg>
