<?xml version="1.0" encoding="utf-8"?>
<!-- Generator: Adobe Illustrator 26.5.0, SVG Export Plug-In . SVG Version: 6.00 Build 0)  -->
<svg version="1.1" id="Layer_1" xmlns="http://www.w3.org/2000/svg" xmlns:xlink="http://www.w3.org/1999/xlink" x="0px" y="0px"
	 viewBox="0 0 1200 1200" style="enable-background:new 0 0 1200 1200;" xml:space="preserve">
<style type="text/css">
	.st0{fill:#FFFFFF;}
</style>
<g>
	<path class="st0" d="M600,1160c-75.62,0-148.95-14.8-217.96-43.99c-66.68-28.2-126.57-68.59-178.02-120.03
		S112.19,884.64,83.99,817.96C54.8,748.95,40,675.62,40,600s14.8-148.95,43.99-217.96c28.2-66.68,68.59-126.57,120.03-178.02
		s111.34-91.83,178.02-120.03C451.05,54.8,524.38,40,600,40s148.95,14.8,217.96,43.99c66.68,28.2,126.57,68.59,178.01,120.03
		s91.83,111.34,120.03,178.02C1145.2,451.05,1160,524.38,1160,600s-14.8,148.95-43.99,217.96
		c-28.2,66.68-68.59,126.57-120.03,178.01s-111.33,91.83-178.01,120.03C748.95,1145.2,675.62,1160,600,1160z"/>
	<path d="M600,80c70.23,0,138.33,13.74,202.38,40.83c61.91,26.19,117.53,63.69,165.31,111.47s85.29,103.4,111.47,165.31
		C1106.26,461.67,1120,529.77,1120,600s-13.74,138.33-40.83,202.38c-26.19,61.91-63.69,117.53-111.47,165.31
		s-103.4,85.29-165.31,111.47C738.33,1106.26,670.23,1120,600,1120s-138.33-13.74-202.38-40.83
		c-61.91-26.19-117.53-63.69-165.31-111.47s-85.29-103.4-111.47-165.31C93.74,738.33,80,670.23,80,600s13.74-138.33,40.83-202.38
		c26.19-61.91,63.69-117.53,111.47-165.31s103.4-85.29,165.31-111.47C461.67,93.74,529.77,80,600,80 M600,0C268.63,0,0,268.63,0,600
		s268.63,600,600,600s600-268.63,600-600S931.37,0,600,0L600,0z"/>
</g>
<path d="M494.96,848.64c-6.21,0-12.25-1.21-18.11-3.62c-5.86-2.41-11.21-6.04-16.04-10.87L273.49,646.84
	c-9.66-9.66-14.49-21.39-14.49-35.19c0-13.8,4.83-25.53,14.49-35.19c9.66-9.66,21.22-14.49,34.67-14.49s25.36,4.83,35.7,14.49
	l151.1,151.1l362.22-361.18c9.66-9.66,21.22-14.66,34.67-15.01c13.45-0.34,25.01,4.66,34.67,15.01
	c9.66,9.66,14.49,21.39,14.49,35.19s-4.83,25.53-14.49,35.19l-397.4,397.4c-4.83,4.83-10.18,8.45-16.04,10.87
	C507.2,847.44,501.17,848.64,494.96,848.64z"/>
</svg>
