<?xml version="1.0" encoding="utf-8"?>
<!-- Generator: Adobe Illustrator 26.5.0, SVG Export Plug-In . SVG Version: 6.00 Build 0)  -->
<svg version="1.1" id="Layer_1" xmlns="http://www.w3.org/2000/svg" xmlns:xlink="http://www.w3.org/1999/xlink" x="0px" y="0px"
	 viewBox="0 0 1200 1200" style="enable-background:new 0 0 1200 1200;" xml:space="preserve">
<style type="text/css">
	.st0{fill:#0844C5;}
	.st1{fill:#FFFFFF;}
	.st2{opacity:0.3;}
</style>
<circle class="st2" cx="600" cy="600" r="600"/>
<path class="st1" d="M961.01,401.57c0,19.23-6.85,35.83-20.35,49.33l-397.4,397.4c-6.67,6.67-14.26,11.79-22.55,15.22l-0.02,0.01
	l-0.03,0.01c-8.26,3.38-16.91,5.1-25.7,5.1c-8.8,0-17.45-1.72-25.72-5.12c-8.28-3.41-15.88-8.53-22.57-15.23L259.35,660.98
	c-13.5-13.5-20.35-30.1-20.35-49.33c0-19.23,6.85-35.83,20.35-49.33s29.92-20.35,48.81-20.35c18.63,0,35.24,6.69,49.35,19.88
	l0.25,0.23L494.98,699.3l348.06-347.06c13.35-13.36,29.6-20.38,48.31-20.86c0.59-0.02,1.19-0.03,1.78-0.03
	c18.24,0,34.76,7.31,47.77,21.13C954.25,365.94,961.01,382.45,961.01,401.57z"/>
</svg>
