<svg width="32" height="36" viewBox="0 0 32 36" fill="none" xmlns="http://www.w3.org/2000/svg">
<path fill-rule="evenodd" clip-rule="evenodd" d="M0.0190981 9.79167V12.5833C0.0190981 13.5139 0.0190964 14.4444 0.0607631 15.3889C0.0468742 15.7361 0.130209 16.0694 0.296876 16.375C0.463543 16.6806 0.713543 16.9167 1.00521 17.0833C5.61632 19.8056 10.2135 22.5278 14.8108 25.2639C15.1302 25.4722 15.5052 25.5694 15.8802 25.5694C16.2552 25.5556 16.6302 25.4444 16.9358 25.2222C17.4358 24.9028 17.9635 24.5972 18.4774 24.2917C18.6997 24.1667 18.9219 24.0278 19.1441 23.9028C20.0885 23.3333 20.1024 23.1806 19.1441 22.625C14.6719 19.9583 10.2135 17.2917 5.74132 14.6389C3.93576 13.5556 3.92187 11.7778 5.74132 10.6944C6.79687 10.0556 7.86632 9.43056 8.93576 8.80556C10.7274 7.75 12.533 6.69444 14.2969 5.61111C14.6719 5.36111 15.1163 5.22222 15.5747 5.22222C16.033 5.22222 16.4635 5.375 16.8385 5.63889C20.2969 7.70833 23.7691 9.75 27.2552 11.7917C28.3108 12.4028 29.3524 13.0278 30.3941 13.6389C31.033 14.0139 31.2413 13.9028 31.2413 13.1667V10.25C31.2691 9.86111 31.1858 9.47222 31.0052 9.13889C30.8247 8.80556 30.533 8.52778 30.1997 8.36111C25.6302 5.68055 21.0469 3 16.4774 0.305556C16.1719 0.111111 15.8108 0 15.4497 0C15.0885 0 14.7274 0.111111 14.4219 0.305556C9.94965 2.88889 5.46354 5.47222 0.977431 8.04167C0.671875 8.20833 0.407987 8.45833 0.227431 8.76389C0.0885426 9.08333 0.00520925 9.44444 0.0190981 9.79167ZM31.2691 26.1944V23.4028C31.2691 23.125 31.2691 22.8333 31.2691 22.5556C31.2691 21.9167 31.2552 21.2639 31.283 20.5972C31.3108 20.2361 31.2274 19.875 31.0608 19.5694C30.8941 19.2639 30.6302 19 30.3108 18.8472C25.7274 16.1389 21.1302 13.4306 16.5469 10.7083C16.2274 10.5 15.8663 10.3889 15.4774 10.3889C15.1024 10.3889 14.7274 10.5 14.408 10.7083C13.9913 10.9583 13.5747 11.2083 13.158 11.4583C12.8108 11.6667 12.4635 11.8611 12.1302 12.0694C11.2552 12.5972 11.2691 12.8056 12.1719 13.3333L25.5747 21.3056C27.3524 22.3889 27.3802 24.1944 25.6024 25.25C23.8385 26.3056 22.0747 27.3472 20.2969 28.3889C19.1163 29.0833 17.9358 29.7778 16.7552 30.4722C16.4497 30.6667 16.1163 30.7639 15.7552 30.7639C15.408 30.7639 15.0608 30.6667 14.7552 30.4722C14.2274 30.1667 13.6996 29.8472 13.1719 29.5417C12.8663 29.3611 12.5608 29.1806 12.2552 29C8.61632 26.8472 4.96354 24.6944 1.32465 22.5556C0.0746528 21.8194 0.00520841 21.8611 0.00520841 23.2917V25.7639C-0.0225694 26.1389 0.0607623 26.5139 0.255207 26.8333C0.449651 27.1528 0.699652 27.4167 1.03299 27.5972L14.8941 35.7222C15.158 35.9028 15.4635 36 15.783 36C16.1024 36 16.408 35.9306 16.6858 35.7639C21.2274 33.1667 25.783 30.5417 30.3385 27.9028C30.6441 27.75 30.8941 27.5 31.0469 27.1944C31.2135 26.875 31.283 26.5417 31.2691 26.1944Z" fill="url(#paint0_linear_1668_27252)"/>
<defs>
<linearGradient id="paint0_linear_1668_27252" x1="0.924776" y1="16.95" x2="29.9474" y2="16.9437" gradientUnits="userSpaceOnUse">
<stop stop-color="#FFD600"/>
<stop offset="0.0001" stop-color="#FFD600"/>
<stop offset="1" stop-color="#FF30D1"/>
</linearGradient>
</defs>
</svg>
