<svg version="1.2" xmlns="http://www.w3.org/2000/svg" viewBox="0 0 48 52" width="48" height="52">
	<title>Somis_logomark_color_dark-bg-enlarged-svg</title>
	<defs>
		<linearGradient id="g1" x1="2.9" y1="2" x2="44.5" y2="50" gradientUnits="userSpaceOnUse">
			<stop offset="0" stop-color="#ffd600"/>
			<stop offset="1" stop-color="#ff30d1"/>
		</linearGradient>
	</defs>
	<style>
		.s0 { fill: url(#g1) } 
	</style>
	<path id="Layer" fill-rule="evenodd" class="s0" d="m3.1 15.1c0 1.2 0 6.2 0 7.4 0 0.5 0.1 1 0.4 1.4 0.2 0.3 0.5 0.7 0.9 0.9 6.2 3.6 12.2 7.2 18.2 11q0.7 0.3 1.4 0.3c0.5 0 1-0.1 1.5-0.5 0.6-0.4 1.3-0.8 2-1.2 0.2-0.1 0.6-0.3 0.8-0.4 1.2-0.8 1.4-1 0-1.7-5.8-3.6-11.7-7.1-17.6-10.7-2.4-1.5-2.4-3.9 0-5.3 1.4-0.8 2.8-1.7 4.2-2.5 2.4-1.5 4.7-2.8 7.1-4.2 0.5-0.4 1.1-0.5 1.7-0.5 0.6 0 1.2 0.2 1.6 0.6 4.6 2.8 9.2 5.5 13.7 8.2 1.5 0.8 2.8 1.6 4.1 2.5 0.9 0.5 1.1 0.3 1.1-0.6v-3.9c0-0.4-0.1-1-0.4-1.4q-0.3-0.7-1-1.1-9.1-5.4-18.1-10.8c-0.3-0.5-0.8-0.6-1.3-0.6-0.5 0-0.9 0.1-1.3 0.4-5.9 3.4-11.8 6.8-17.7 10.3-0.3 0.2-0.7 0.6-0.9 1q-0.4 0.7-0.4 1.4zm41.1 21.9c0-0.4 0-4.5 0-4.9 0-0.8 0-1.6 0-2.6 0-0.5-0.1-1-0.2-1.3-0.3-0.4-0.6-0.7-1-1-6-3.6-12.1-7.2-18.1-10.8-0.5-0.2-0.9-0.5-1.5-0.5-0.5 0-0.9 0.2-1.4 0.5-0.6 0.4-1.1 0.7-1.7 1-0.5 0.2-1 0.5-1.3 0.8-1.2 0.7-1.1 1 0 1.7l17.6 10.7c2.3 1.4 2.4 3.8 0 5.3-2.2 1.4-4.7 2.7-6.9 4.2-1.6 0.9-3.2 1.8-4.7 2.7-0.4 0.3-0.9 0.4-1.3 0.4-0.5 0-1-0.1-1.4-0.4-0.7-0.3-1.4-0.8-2-1.2-0.4-0.2-0.8-0.4-1.2-0.7q-7.2-4.3-14.4-8.6c-1.7-1-1.7-1-1.7 0.9v3.3q0 0.7 0.4 1.4c0.2 0.5 0.6 0.7 1 1l18.3 10.8c0.4 0.2 0.7 0.3 1.2 0.3 0.4 0 0.8-0.1 1.2-0.3q9-5.2 18-10.5c0.4-0.2 0.7-0.4 1-0.9 0.1-0.4 0.1-0.9 0.1-1.3z"/>
</svg>