<svg width="24" height="22" viewBox="0 0 24 22" fill="none" xmlns="http://www.w3.org/2000/svg">
<path d="M12 0.5C12.6656 0.5 13.2797 0.851562 13.6172 1.42812L23.7422 18.6781C24.0844 19.2594 24.0844 19.9766 23.7515 20.5578C23.4187 21.1391 22.7953 21.5 22.125 21.5H1.87498C1.20467 21.5 0.581229 21.1391 0.248416 20.5578C-0.0843962 19.9766 -0.0797087 19.2547 0.257791 18.6781L10.3828 1.42812C10.7203 0.851562 11.3344 0.5 12 0.5ZM12 6.5C11.3765 6.5 10.875 7.00156 10.875 7.625V12.875C10.875 13.4984 11.3765 14 12 14C12.6234 14 13.125 13.4984 13.125 12.875V7.625C13.125 7.00156 12.6234 6.5 12 6.5ZM13.5 17C13.5 16.6022 13.3419 16.2206 13.0606 15.9393C12.7793 15.658 12.3978 15.5 12 15.5C11.6022 15.5 11.2206 15.658 10.9393 15.9393C10.658 16.2206 10.5 16.6022 10.5 17C10.5 17.3978 10.658 17.7794 10.9393 18.0607C11.2206 18.342 11.6022 18.5 12 18.5C12.3978 18.5 12.7793 18.342 13.0606 18.0607C13.3419 17.7794 13.5 17.3978 13.5 17Z" fill="url(#paint0_linear_3664_15955)"/>
<defs>
<linearGradient id="paint0_linear_3664_15955" x1="0.00170898" y1="0.5" x2="9.21889" y2="26.7" gradientUnits="userSpaceOnUse">
<stop stop-color="#78AEF2"/>
<stop offset="1" stop-color="#B54DFE"/>
</linearGradient>
</defs>
</svg>
