<svg width="24" height="24" viewBox="0 0 24 24" fill="none" xmlns="http://www.w3.org/2000/svg">
<path d="M18 3L19.5 0L21 3L24 4.5L21 6L19.5 9L18 6L15 4.5L18 3ZM6 9L9 3L12 9L18 12L12 15L9 21L6 15L0 12L6 9ZM19.5 15L21 18L24 19.5L21 21L19.5 24L18 21L15 19.5L18 18L19.5 15Z" fill="url(#paint0_linear_3664_15969)"/>
<defs>
<linearGradient id="paint0_linear_3664_15969" x1="0" y1="0" x2="11.6455" y2="28.9669" gradientUnits="userSpaceOnUse">
<stop stop-color="#78AEF2"/>
<stop offset="1" stop-color="#B54DFE"/>
</linearGradient>
</defs>
</svg>
