<svg width="24" height="24" viewBox="0 0 24 24" fill="none" xmlns="http://www.w3.org/2000/svg">
<path d="M1.5 1.5C1.5 1.10218 1.65804 0.720644 1.93934 0.43934C2.22064 0.158035 2.60218 0 3 0C3.39782 0 3.77936 0.158035 4.06066 0.43934C4.34196 0.720644 4.5 1.10218 4.5 1.5C4.5 1.89782 4.34196 2.27936 4.06066 2.56066C3.77936 2.84196 3.39782 3 3 3C2.60218 3 2.22064 2.84196 1.93934 2.56066C1.65804 2.27936 1.5 1.89782 1.5 1.5ZM21 7.5C21 7.10218 21.158 6.72064 21.4393 6.43934C21.7206 6.15804 22.1022 6 22.5 6C22.8978 6 23.2794 6.15804 23.5607 6.43934C23.842 6.72064 24 7.10218 24 7.5C24 7.89782 23.842 8.27936 23.5607 8.56066C23.2794 8.84196 22.8978 9 22.5 9C22.1022 9 21.7206 8.84196 21.4393 8.56066C21.158 8.27936 21 7.89782 21 7.5ZM22.5 19.5C22.8978 19.5 23.2794 19.658 23.5607 19.9393C23.842 20.2206 24 20.6022 24 21C24 21.3978 23.842 21.7794 23.5607 22.0607C23.2794 22.342 22.8978 22.5 22.5 22.5C22.1022 22.5 21.7206 22.342 21.4393 22.0607C21.158 21.7794 21 21.3978 21 21C21 20.6022 21.158 20.2206 21.4393 19.9393C21.7206 19.658 22.1022 19.5 22.5 19.5ZM7.03594 6.375L7.83281 5.57812L8.22187 5.18906C9.00469 4.40625 9.49687 3.37969 9.61875 2.27812L9.75937 0.99375L11.9953 1.24219L11.8547 2.52656C11.6766 4.13438 10.9547 5.63438 9.81094 6.77813L9.42188 7.17188L8.625 7.96875L7.03594 6.375ZM16.8281 14.5781L17.2125 14.1891C18.3563 13.0453 19.8562 12.3234 21.4641 12.1453L22.7484 12.0047L22.9969 14.2406L21.7125 14.3812C20.6109 14.5031 19.5844 14.9953 18.8016 15.7781L18.4219 16.1719L17.625 16.9688L16.0359 15.375L16.8328 14.5781H16.8281ZM23.6016 1.98281L23.1328 2.38125C22.4391 2.96719 21.5531 3.27656 20.6484 3.25313C19.8703 3.23438 19.2141 3.83438 19.1672 4.6125L19.0828 6.01875C18.9656 8.01094 17.2875 9.54844 15.2953 9.49688C14.9391 9.4875 14.5922 9.60938 14.325 9.83906L13.8563 10.2375L12.9984 10.9641L11.5453 9.24844L12.4031 8.52188L12.8719 8.12344C13.5656 7.5375 14.4516 7.22812 15.3563 7.25156C16.1344 7.27031 16.7906 6.67031 16.8375 5.89219L16.9219 4.48594C17.0391 2.49375 18.7172 0.95625 20.7094 1.00781C21.0656 1.01719 21.4125 0.895312 21.6797 0.665625L22.1484 0.267187L23.6016 1.98281ZM1.5 24L0 22.5L1.80469 17.8641L6.13594 22.1953L1.5 24ZM7.66406 21.6047L2.39531 16.3359L3.48281 13.5422L10.4578 20.5172L7.66406 21.6047ZM11.9859 19.9219L4.07812 12.0141L5.25 9L15 18.75L11.9859 19.9219Z" fill="url(#paint0_linear_3664_14695)"/>
<defs>
<linearGradient id="paint0_linear_3664_14695" x1="0" y1="0" x2="11.4661" y2="28.9622" gradientUnits="userSpaceOnUse">
<stop stop-color="#FFD600"/>
<stop offset="0.0001" stop-color="#FFD600"/>
<stop offset="1" stop-color="#FF30D1"/>
</linearGradient>
</defs>
</svg>
