<?xml version="1.0" standalone="no"?>
<!DOCTYPE svg PUBLIC "-//W3C//DTD SVG 20010904//EN"
 "http://www.w3.org/TR/2001/REC-SVG-20010904/DTD/svg10.dtd">
<svg version="1.0" xmlns="http://www.w3.org/2000/svg"
 width="25" height="25" viewBox="0 0 512.000000 512.000000"
 preserveAspectRatio="xMidYMid meet">
    <g transform="translate(0.000000,512.000000) scale(0.100000,-0.100000)"
fill="#0145f5" stroke="none">
        <path d="M2315 5109 c-589 -56 -1146 -321 -1571 -747 -994 -997 -991 -2613 7
-3611 685 -685 1690 -924 2609 -621 388 128 720 332 1009 621 926 926 1005
2395 183 3415 -537 667 -1383 1024 -2237 943z m-238 -1050 c171 -24 322 -89
569 -245 250 -158 366 -200 534 -191 116 5 190 30 282 93 77 52 178 156 237
243 23 34 44 61 46 61 16 0 355 -177 355 -185 0 -23 -158 -243 -232 -320 -224
-237 -496 -346 -785 -316 -209 22 -329 69 -593 234 -163 101 -298 168 -380
188 -86 21 -222 17 -307 -9 -88 -27 -203 -102 -274 -180 -55 -60 -134 -163
-141 -184 -3 -9 -62 15 -179 71 -96 45 -178 87 -183 91 -22 21 137 245 260
367 168 167 336 252 564 287 53 7 152 6 227 -5z m110 -1094 c121 -31 262 -98
445 -213 251 -158 364 -202 518 -202 162 0 274 47 404 171 45 42 99 102 121
133 77 111 46 109 245 11 96 -48 177 -89 180 -92 16 -15 -132 -222 -242 -339
-143 -150 -296 -242 -475 -286 -69 -17 -117 -21 -223 -21 -229 1 -383 55 -680
240 -263 164 -345 195 -510 195 -121 0 -195 -20 -295 -80 -75 -45 -185 -155
-249 -249 l-49 -72 -178 90 c-99 49 -179 93 -179 98 0 17 123 196 188 274 105
126 255 243 387 301 175 78 389 92 592 41z m-38 -1062 c139 -28 249 -79 485
-225 263 -162 331 -189 492 -196 127 -5 188 8 289 61 75 40 205 163 275 261
l53 74 179 -89 c98 -49 178 -93 178 -98 0 -23 -155 -235 -229 -314 -108 -113
-191 -176 -306 -233 -170 -84 -357 -111 -545 -79 -175 29 -307 86 -545 235
-156 97 -269 153 -351 174 -76 20 -231 21 -299 2 -149 -39 -297 -159 -413
-333 l-34 -52 -179 90 c-98 49 -179 93 -179 99 0 16 137 213 198 285 251 293
573 410 931 338z"/>
    </g>
</svg>