<?xml version="1.0" standalone="no"?>
<!DOCTYPE svg PUBLIC "-//W3C//DTD SVG 20010904//EN"
 "http://www.w3.org/TR/2001/REC-SVG-20010904/DTD/svg10.dtd">
<svg version="1.0" xmlns="http://www.w3.org/2000/svg"
 width="25" height="25" viewBox="0 0 225.000000 225.000000"
 preserveAspectRatio="xMidYMid meet">
    <g transform="translate(0.000000,225.000000) scale(0.100000,-0.100000)"
fill="#3d69f7" stroke="none">
        <path d="M0 1125 l0 -1125 1125 0 1125 0 0 1125 0 1125 -1125 0 -1125 0 0
-1125z m1144 723 c-4 -13 -31 -75 -61 -138 -98 -206 -240 -515 -247 -536 -9
-29 14 -54 59 -64 22 -5 118 -10 213 -10 111 0 172 -4 172 -10 0 -6 -28 -72
-62 -146 l-62 -136 -300 4 c-262 3 -306 6 -341 21 -111 50 -141 138 -91 269
13 35 81 185 151 333 177 375 195 415 195 426 0 5 80 9 191 9 l190 0 -7 -22z
m581 -394 c99 -49 127 -128 86 -245 -18 -51 -34 -88 -141 -314 -23 -49 -68
-146 -100 -215 -32 -69 -72 -155 -89 -193 l-32 -67 -184 0 c-130 0 -185 3
-185 11 0 6 16 46 36 88 20 42 92 197 161 345 l125 268 -20 27 -19 26 -199 3
c-109 1 -203 7 -208 12 -6 6 14 61 55 151 l64 141 295 -4 295 -4 60 -30z"/>
    </g>
</svg>