<svg width="25" height="25" viewBox="0 0 215 238" fill="none" xmlns="http://www.w3.org/2000/svg">
    <path fill-rule="evenodd" clip-rule="evenodd" d="M0.131235 64.7338V83.1898C0.131235 89.3418 0.131223 95.4938 0.417539 101.738C0.3221 104.033 0.894745 106.237 2.04001 108.257C3.18527 110.277 4.90318 111.838 6.90739 112.94C38.5931 130.937 70.1833 148.934 101.773 167.022C103.969 168.4 106.545 169.042 109.122 169.042C111.699 168.951 114.276 168.216 116.376 166.747C119.811 164.635 123.438 162.615 126.969 160.595C128.496 159.769 130.023 158.85 131.55 158.024C138.04 154.259 138.136 153.249 131.55 149.576C100.819 131.947 70.1833 114.317 39.452 96.7793C27.0449 89.6173 26.9495 77.8642 39.452 70.7022C46.7053 66.4784 54.0541 62.3465 61.4029 58.2145C73.7145 51.2361 86.1215 44.2577 98.2422 37.0957C100.819 35.4429 103.873 34.5247 107.023 34.5247C110.172 34.5247 113.131 35.5347 115.708 37.2793C139.472 50.9606 163.331 64.4583 187.287 77.956C194.54 81.9961 201.698 86.1281 208.856 90.1682C213.246 92.6474 214.678 91.9128 214.678 87.0463V67.7639C214.868 65.1929 214.296 62.6219 213.055 60.4182C211.814 58.2145 209.81 56.3781 207.52 55.2762C176.12 37.5548 144.625 19.8333 113.226 2.02006C111.126 0.734568 108.645 0 106.164 0C103.682 0 101.201 0.734568 99.1012 2.02006C68.3699 19.0988 37.5432 36.1775 6.7165 53.1644C4.61685 54.2662 2.80352 55.919 1.56282 57.939C0.608428 60.0509 0.0357959 62.4383 0.131235 64.7338ZM214.868 173.174V154.718C214.868 152.882 214.868 150.954 214.868 149.117C214.868 144.894 214.773 140.578 214.964 136.171C215.155 133.783 214.582 131.396 213.437 129.376C212.292 127.356 210.478 125.611 208.283 124.601C176.788 106.696 145.198 88.7909 113.703 70.794C111.508 69.4167 109.027 68.6821 106.355 68.6821C103.778 68.6821 101.201 69.4167 99.0058 70.794C96.1426 72.4468 93.2794 74.0995 90.4163 75.7523C88.0303 77.1296 85.6443 78.4151 83.3538 79.7924C77.3412 83.2816 77.4366 84.659 83.6401 88.1481L175.739 140.853C187.955 148.015 188.146 159.952 175.929 166.931C163.809 173.909 151.688 180.796 139.472 187.682C131.359 192.273 123.247 196.864 115.135 201.455C113.035 202.741 110.745 203.383 108.263 203.383C105.877 203.383 103.491 202.741 101.392 201.455C97.7651 199.435 94.1384 197.323 90.5117 195.303C88.412 194.11 86.3124 192.916 84.2128 191.722C59.2078 177.49 34.1074 163.258 9.10247 149.117C0.512984 144.251 0.03579 144.526 0.03579 153.984V170.328C-0.155087 172.807 0.417533 175.286 1.75368 177.398C3.08982 179.51 4.80772 181.255 7.09825 182.448L102.346 236.164C104.159 237.357 106.259 238 108.454 238C110.649 238 112.749 237.541 114.658 236.439C145.866 219.269 177.17 201.914 208.474 184.468C210.574 183.458 212.292 181.806 213.341 179.785C214.487 177.674 214.964 175.47 214.868 173.174Z" fill="url(#paint0_linear_4315_14863)"/>
    <defs>
        <linearGradient id="paint0_linear_4315_14863" x1="0.0222356" y1="-0.770707" x2="204.425" y2="247.488" gradientUnits="userSpaceOnUse">
            <stop stop-color="#FFD600"/>
            <stop offset="0.0001" stop-color="#FFD600"/>
            <stop offset="1" stop-color="#FF30D1"/>
        </linearGradient>
    </defs>
</svg>